<svg xmlns="http://www.w3.org/2000/svg" width="30" height="30" viewBox="0 0 30 30">
    <circle id="타원_2" data-name="타원 2" cx="15" cy="15" r="15"/>
    <g id="그룹_25" data-name="그룹 25" transform="translate(-1790 -54)">
        <path id="패스_1412" data-name="패스 1412" d="M-509.4,1020.723a.655.655,0,0,1-.465-.194l-4.928-4.928a.655.655,0,0,1,0-.928.655.655,0,0,1,.929,0l4.464,4.463,4.463-4.463a.655.655,0,0,1,.929,0,.655.655,0,0,1,0,.928l-4.928,4.928a.654.654,0,0,1-.464.194Z" transform="translate(2314.396 -943.686)" fill="#fff"/>
        <path id="패스_1413" data-name="패스 1413" d="M-495.574,993.156a.657.657,0,0,1-.657-.657V977.741a.657.657,0,0,1,.657-.657.657.657,0,0,1,.657.657V992.5a.657.657,0,0,1-.657.657Z" transform="translate(2300.574 -916.12)" fill="#fff"/>
    </g>
</svg>

