<svg xmlns="http://www.w3.org/2000/svg" width="15" height="16" viewBox="0 0 15 16">
  <g id="그룹_3459" data-name="그룹 3459" transform="translate(-13 -119)">
    <g id="패스_3564" data-name="패스 3564" transform="translate(13 121)">
      <path d="M 13 12.5 L 2 12.5 C 1.172899961471558 12.5 0.5 11.82709980010986 0.5 11 L 0.5 2 C 0.5 1.172899961471558 1.172899961471558 0.5 2 0.5 L 13 0.5 C 13.82709980010986 0.5 14.5 1.172899961471558 14.5 2 L 14.5 11 C 14.5 11.82709980010986 13.82709980010986 12.5 13 12.5 Z" stroke="none"/>
      <path d="M 2 1 C 1.448599815368652 1 1 1.448599815368652 1 2 L 1 11 C 1 11.55140018463135 1.448599815368652 12 2 12 L 13 12 C 13.55140018463135 12 14 11.55140018463135 14 11 L 14 2 C 14 1.448599815368652 13.55140018463135 1 13 1 L 2 1 M 2 0 L 13 0 C 14.10457038879395 0 15 0.8954296112060547 15 2 L 15 11 C 15 12.10457038879395 14.10457038879395 13 13 13 L 2 13 C 0.8954296112060547 13 0 12.10457038879395 0 11 L 0 2 C 0 0.8954296112060547 0.8954296112060547 0 2 0 Z" stroke="none" fill="#000"/>
    </g>
    <text id="T" transform="translate(17 132)" fill="#fff" font-size="12" font-family="Helvetica" letter-spacing="-0.03em"><tspan x="0" y="0">T</tspan></text>
    <g id="사각형_1753" data-name="사각형 1753" transform="translate(14 119)" fill="#fff" stroke="#000" stroke-width="1">
      <path d="M1,0H12a1,1,0,0,1,1,1V3a0,0,0,0,1,0,0H0A0,0,0,0,1,0,3V1A1,1,0,0,1,1,0Z" stroke="none"/>
      <path d="M1,.5H12a.5.5,0,0,1,.5.5V2.5a0,0,0,0,1,0,0H.5a0,0,0,0,1,0,0V1A.5.5,0,0,1,1,.5Z" fill="none"/>
    </g>
  </g>
</svg>
