<svg xmlns="http://www.w3.org/2000/svg" width="25" height="24" viewBox="0 0 25 24">
  <g id="그룹_3502" data-name="그룹 3502" transform="translate(-55 -672)">
    <g id="그룹_3501" data-name="그룹 3501" transform="translate(-33.52 -119.946)">
      <g id="패스_4100" data-name="패스 4100" transform="translate(88.52 791.946)" fill="none">
        <path d="M5,0H20c2.761,0,5,1.852,5,4.137V16.548c0,2.285-2.239,4.137-5,4.137H9.65L5,24V20.685c-2.761,0-5-1.852-5-4.137V4.137C0,1.852,2.239,0,5,0Z" stroke="none"/>
        <path d="M 5 1 C 2.794389724731445 1 1 2.407220840454102 1 4.136930465698242 L 1 16.54771995544434 C 1 18.27742958068848 2.794389724731445 19.68465042114258 5 19.68465042114258 L 6 19.68465042114258 L 6 22.05885696411133 L 9.329919815063477 19.68465042114258 L 20 19.68465042114258 C 22.20561027526855 19.68465042114258 24 18.27742958068848 24 16.54771995544434 L 24 4.136930465698242 C 24 2.407220840454102 22.20561027526855 1 20 1 L 5 1 M 5 0 L 20 0 C 22.76141929626465 0 25 1.852170944213867 25 4.136930465698242 L 25 16.54771995544434 C 25 18.83248901367188 22.76141929626465 20.68465042114258 20 20.68465042114258 L 9.649909973144531 20.68465042114258 L 5 24 L 5 20.68465042114258 C 2.238580703735352 20.68465042114258 0 18.83248901367188 0 16.54771995544434 L 0 4.136930465698242 C 0 1.852170944213867 2.238580703735352 0 5 0 Z" stroke="none" fill="#b9b9b9"/>
      </g>
      <g id="그룹_3503" data-name="그룹 3503">
        <circle id="타원_290" data-name="타원 290" cx="1.5" cy="1.5" r="1.5" transform="translate(93.519 800.946)" fill="#b9b9b9"/>
        <path id="패스_4938" data-name="패스 4938" d="M1.5,0A1.5,1.5,0,1,1,0,1.5,1.5,1.5,0,0,1,1.5,0Z" transform="translate(99.52 800.946)" fill="#b9b9b9"/>
        <circle id="타원_292" data-name="타원 292" cx="1.5" cy="1.5" r="1.5" transform="translate(105.52 800.946)" fill="#b9b9b9"/>
      </g>
    </g>
  </g>
</svg>
