<svg xmlns="http://www.w3.org/2000/svg" width="38" height="38" viewBox="0 0 38 38">
  <g id="그룹_3500" data-name="그룹 3500" transform="translate(-155.999 -256)">
    <path id="합치기_1" data-name="합치기 1" d="M7.358,10.424v0h-1.8A5.558,5.558,0,0,1,0,4.863,4.863,4.863,0,0,1,4.863,0H9.154a5.558,5.558,0,0,1,5.558,5.558v.137c2.1.159,4.441.279,6.75.279,2.133,0,4.235-.1,6.123-.243V5.568A5.558,5.558,0,0,1,33.143.01h4.291A4.864,4.864,0,0,1,42.3,4.874a5.558,5.558,0,0,1-5.558,5.558H34.894a104.027,104.027,0,0,1-13.585,1.012A112.253,112.253,0,0,1,7.358,10.424Z" transform="translate(164.091 256) rotate(45)" fill="#fff"/>
  </g>
</svg>
